<?xml version="1.0" encoding="UTF-8" standalone="no"?>
<!-- Created with Inkscape (http://www.inkscape.org/) -->

<svg
   width="48"
   height="40.245029"
   viewBox="0 0 48 40.245029"
   version="1.1"
   id="svg1"
   inkscape:version="1.3 (0e150ed, 2023-07-21)"
   sodipodi:docname="bunnylogoglasses3.svg"
   inkscape:export-filename="bun_logo.svg"
   inkscape:export-xdpi="128"
   inkscape:export-ydpi="128"
   xmlns:inkscape="http://www.inkscape.org/namespaces/inkscape"
   xmlns:sodipodi="http://sodipodi.sourceforge.net/DTD/sodipodi-0.dtd"
   xmlns="http://www.w3.org/2000/svg"
   xmlns:svg="http://www.w3.org/2000/svg">
  <sodipodi:namedview
     id="namedview1"
     pagecolor="#ffffff"
     bordercolor="#000000"
     borderopacity="0.25"
     inkscape:showpageshadow="2"
     inkscape:pageopacity="0.0"
     inkscape:pagecheckerboard="0"
     inkscape:deskcolor="#d1d1d1"
     inkscape:document-units="px"
     inkscape:zoom="9.497175"
     inkscape:cx="15.478287"
     inkscape:cy="15.846818"
     inkscape:window-width="1384"
     inkscape:window-height="682"
     inkscape:window-x="41"
     inkscape:window-y="57"
     inkscape:window-maximized="0"
     inkscape:current-layer="svg1"
     inkscape:export-bgcolor="#ffffff00" />
  <defs
     id="defs1" />
  <g
     id="g40"
     inkscape:label="bunny"
     transform="matrix(0.95872956,0,0,0.97841506,-58.203531,-29.586363)"
     inkscape:export-filename="bunnyglass.svg"
     inkscape:export-xdpi="90"
     inkscape:export-ydpi="90">
    <path
       style="display:inline;fill:#ffffff;fill-opacity:1;stroke:#000000;stroke-width:1.62683;stroke-linecap:round;stroke-linejoin:round;stroke-opacity:1"
       d="m 85.742149,47.897741 c 0,-5.865224 0,-11.730449 -2.183904,-14.663062 -2.183903,-2.932612 -6.551536,-2.932612 -8.735396,0.01254 -2.18386,2.94515 -2.18386,8.835215 -2.18386,14.725398 -2.564314,0.687106 -5.128629,1.374211 -7.009673,2.755069 -1.881045,1.380856 -3.078772,3.455381 -3.677648,5.818959 -0.598875,2.363579 -0.598875,5.016063 0.218016,7.159224 0.816891,2.14316 2.450584,3.776853 4.956851,4.834083 2.506269,1.057231 5.884928,1.537904 9.132944,1.778243 3.248017,0.24034 6.365328,0.24034 9.48267,0.24034 m 0,-22.660793 c 0,-5.865225 0,-11.730449 2.183904,-14.663062 2.183903,-2.932612 6.551536,-2.932612 8.735396,0.01254 2.183864,2.945151 2.183864,8.835216 2.183864,14.725399 2.564317,0.687106 5.128627,1.374212 7.009667,2.755069 1.88105,1.380856 3.07878,3.455381 3.67765,5.818959 0.59887,2.363579 0.59887,5.016064 -0.21802,7.159224 -0.81688,2.14316 -2.45058,3.776853 -4.95684,4.834084 -2.50628,1.05723 -5.884936,1.537903 -9.132951,1.778242 -3.248017,0.24034 -6.365328,0.24034 -9.48267,0.24034"
       id="path31"
       sodipodi:nodetypes="cccccccccc"
       inkscape:label="face" />
    <path
       style="display:none;fill:#ffd5d5;stroke:#ffd5d5;stroke-width:1.62683;stroke-linecap:round;stroke-linejoin:round"
       d="m 82.22416,47.383758 c -0.06947,-2.946981 -0.138942,-5.893901 -0.313583,-7.787668 -0.174641,-1.893766 -0.454432,-2.734206 -0.979037,-3.273903 -0.524604,-0.539696 -1.293953,-0.778579 -1.9681,-0.739892 -0.674147,0.03869 -1.253007,0.354942 -1.691188,0.91086 -0.438181,0.555916 -0.735632,1.351433 -0.896042,3.215472 -0.16041,1.864038 -0.18376,4.796432 -0.20711,7.728885 z m 7.035978,0 c 0.06947,-2.946981 0.138942,-5.893901 0.313583,-7.787668 0.174641,-1.893766 0.454432,-2.734206 0.979037,-3.273903 0.524604,-0.539696 1.293953,-0.778579 1.9681,-0.739892 0.674147,0.03869 1.253007,0.354942 1.691188,0.91086 0.438181,0.555916 0.735632,1.351433 0.896042,3.215472 0.16041,1.864038 0.18376,4.796432 0.20711,7.728885 z"
       id="path39"
       sodipodi:nodetypes="cccccccc"
       inkscape:label="ears" />
  </g>
  <g
     id="g39"
     transform="matrix(0.81873268,0,0,0.83554363,-46.199895,-24.734777)"
     style="display:inline"
     inkscape:label="glasses">
    <path
       style="display:inline;fill:#212121;fill-opacity:1;stroke:#212121;stroke-width:1.905;stroke-linecap:round;stroke-linejoin:round;stroke-opacity:1"
       d="m 85.742147,58.360132 c -0.698979,1.9683 -1.397958,3.936601 -2.315938,5.380296 -0.917979,1.443695 -2.054959,2.362785 -4.125472,2.793164 -2.070512,0.430379 -5.074558,0.372048 -7.174485,-0.08003 -2.099928,-0.452073 -3.199487,-1.22981 -3.798213,-3.120524 -0.598726,-1.890714 -0.518269,-4.33125 -0.430772,-6.98531 l 17.84488,-1.9e-5 m 0,2.012419 c 0.698979,1.9683 1.397958,3.936601 2.315938,5.380296 0.917979,1.443695 2.054959,2.362785 4.125472,2.793164 2.070512,0.430379 5.074558,0.372048 7.174485,-0.08003 2.099928,-0.452073 3.199488,-1.22981 3.798218,-3.120524 0.59872,-1.890714 0.51826,-4.33125 0.43077,-6.98531 l -17.844883,-1.9e-5"
       id="path32"
       sodipodi:nodetypes="ccccccc" />
    <path
       id="path35"
       style="display:inline;fill:none;fill-opacity:1;stroke:#ffffff;stroke-width:1.905;stroke-linecap:round;stroke-linejoin:round"
       transform="translate(-8.0318545,0.99825572)"
       d="m 80.437076,56.347714 c 2.754963,2.365853 5.509925,4.731705 8.264888,7.097557 M 77.89453,59.834511 c 1.861876,1.598905 3.72375,3.197809 5.585626,4.796713 m 3.463535,-8.28351 c 1.533872,1.317228 3.067743,2.634456 4.601615,3.951684 m 7.850554,-3.848213 c 2.75496,2.365853 5.50993,4.731705 8.26489,7.097557 m -10.807435,-3.61076 c 1.861876,1.598905 3.723745,3.197809 5.585625,4.796713 m 3.46354,-8.28351 c 1.53387,1.317228 3.06774,2.634456 4.60161,3.951684"
       inkscape:label="path35" />
  </g>
</svg>
