<?xml version="1.0" encoding="UTF-8" standalone="no"?>
<!-- Created with Inkscape (http://www.inkscape.org/) -->

<svg
   width="48"
   height="48"
   viewBox="0 0 48 48"
   version="1.1"
   id="svg1"
   xmlns="http://www.w3.org/2000/svg"
   xmlns:svg="http://www.w3.org/2000/svg">
  <defs
     id="defs1" />
  <g
     id="g40"
     transform="matrix(0.76266127,0,0,0.77832091,-41.392215,-18.709954)">
    <path
       style="display:inline;fill:#ffffff;fill-opacity:1;stroke:#000000;stroke-width:1.905;stroke-linecap:round;stroke-linejoin:round;stroke-opacity:1"
       d="m 27.881693,25.952772 c 0,-6.868132 0,-13.736264 -2.557334,-17.1703304 C 22.767025,5.3483753 17.652561,5.3483753 15.095278,8.7971237 12.537995,12.245872 12.537995,19.143092 12.537995,26.04045 9.5352031,26.845046 6.5324113,27.649641 4.3297227,29.266614 2.127034,30.883586 0.7245048,33.312838 0.02322628,36.08057 c -0.70127851,2.767732 -0.70127851,5.873771 0.25529469,8.383395 0.95657323,2.509624 2.86961413,4.422665 5.80443453,5.660674 2.9348204,1.238009 6.8912035,1.800873 10.6946055,2.082308 3.803402,0.281436 7.453749,0.281436 11.104132,0.281436 m 0,-26.535611 c 0,-6.868132 0,-13.736264 2.557334,-17.1703304 2.557334,-3.4340663 7.671798,-3.4340663 10.229081,0.014682 2.557283,3.4487484 2.557283,10.3459684 2.557283,17.2433264 3.002792,0.804596 6.005584,1.609191 8.208272,3.226164 2.202689,1.616972 3.605218,4.046224 4.306497,6.813956 0.701278,2.767732 0.701278,5.873771 -0.255295,8.383395 -0.956573,2.509624 -2.869614,4.422665 -5.804434,5.660674 -2.934821,1.238009 -6.891204,1.800873 -10.694606,2.082308 -3.803402,0.281436 -7.453749,0.281436 -11.104132,0.281436"
       id="path31"
       transform="translate(57.860454,25.516732)" />
    <path
       style="display:inline;fill:#ffd5d5;stroke:#ffd5d5;stroke-width:1.905;stroke-linecap:round;stroke-linejoin:round"
       d="m 79.700462,50.41382 c -0.08135,-3.450891 -0.1627,-6.901712 -0.367203,-9.119298 -0.204503,-2.217585 -0.532136,-3.201734 -1.146444,-3.833715 -0.614308,-0.63198 -1.515209,-0.91171 -2.30463,-0.866407 -0.789421,0.0453 -1.467262,0.415634 -1.980368,1.066609 -0.513107,0.650974 -0.86142,1.582518 -1.049258,3.765293 -0.187839,2.182774 -0.215182,5.616584 -0.242525,9.050464 z m 8.239076,0 c 0.08135,-3.450891 0.1627,-6.901712 0.367203,-9.119298 0.204503,-2.217585 0.532136,-3.201734 1.146444,-3.833715 0.614308,-0.63198 1.515209,-0.91171 2.30463,-0.866407 0.789421,0.0453 1.467262,0.415634 1.980368,1.066609 0.513107,0.650974 0.86142,1.582518 1.049258,3.765293 0.187839,2.182774 0.215182,5.616584 0.242525,9.050464 z"
       id="path39"
       transform="translate(1.922147,0.45381274)" />
    <g
       id="g39"
       transform="translate(4.2663126e-7,1.1881265)"
       style="display:inline">
      <path
         style="display:inline;fill:#212121;fill-opacity:1;stroke:#212121;stroke-width:1.905;stroke-linecap:round;stroke-linejoin:round;stroke-opacity:1"
         d="m 85.742147,58.360132 c -0.698979,1.9683 -1.397958,3.936601 -2.315938,5.380296 -0.917979,1.443695 -2.054959,2.362785 -4.125472,2.793164 -2.070512,0.430379 -5.074558,0.372048 -7.174485,-0.08003 -2.099928,-0.452073 -3.199487,-1.22981 -3.798213,-3.120524 -0.598726,-1.890714 -0.518269,-4.33125 -0.430772,-6.98531 l 17.84488,-1.9e-5 m 0,2.012419 c 0.698979,1.9683 1.397958,3.936601 2.315938,5.380296 0.917979,1.443695 2.054959,2.362785 4.125472,2.793164 2.070512,0.430379 5.074558,0.372048 7.174485,-0.08003 2.099928,-0.452073 3.199488,-1.22981 3.798218,-3.120524 0.59872,-1.890714 0.51826,-4.33125 0.43077,-6.98531 l -17.844883,-1.9e-5"
         id="path32" />
      <path
         id="path35"
         style="display:inline;fill:none;fill-opacity:1;stroke:#ffffff;stroke-width:1.905;stroke-linecap:round;stroke-linejoin:round"
         transform="translate(-8.0318545,0.99825572)"
         d="m 80.437076,56.347714 c 2.754963,2.365853 5.509925,4.731705 8.264888,7.097557 M 77.89453,59.834511 c 1.861876,1.598905 3.72375,3.197809 5.585626,4.796713 m 3.463535,-8.28351 c 1.533872,1.317228 3.067743,2.634456 4.601615,3.951684 m 7.850554,-3.848213 c 2.75496,2.365853 5.50993,4.731705 8.26489,7.097557 m -10.807435,-3.61076 c 1.861876,1.598905 3.723745,3.197809 5.585625,4.796713 m 3.46354,-8.28351 c 1.53387,1.317228 3.06774,2.634456 4.60161,3.951684" />
    </g>
  </g>
</svg>
